<svg width="24" height="24" viewBox="0 0 24 24" fill="none" xmlns="http://www.w3.org/2000/svg">
<path d="M8 3C8.5 3 10.5 7.5 10.5 8C10.5 9 9 10 8.5 11C8 12 9 13 10 14C10.3943 14.3943 12 16 13 15.5C14 15 15 13.5 16 13.5C16.5 13.5 21 15.5 21 16C21 18 19.5 19.5 18 20C16.5 20.5 15.5 20.5 13.5 20C11.5 19.5 10 19 7.5 16.5C5 14 4.5 12.5 4 10.5C3.5 8.5 3.5 7.5 4 6C4.5 4.5 6 3 8 3Z" stroke="#4A4ED4" stroke-width="2" stroke-linecap="round" stroke-linejoin="round"/>
<path d="M14 7.04407C14.6608 7.34737 15.2571 7.76721 15.7624 8.27726C16.2546 8.77404 16.6606 9.35639 16.956 10" stroke="#4A4ED4" stroke-width="2" stroke-linecap="round" stroke-linejoin="round"/>
<path d="M20.748 8.99998C20.3874 7.59924 19.6571 6.34698 18.6672 5.35348C17.6704 4.35308 16.4105 3.61505 15 3.25201" stroke="#4A4ED4" stroke-width="2" stroke-linecap="round" stroke-linejoin="round"/>
</svg>
