<svg width="36" height="36" viewBox="0 0 24 24" fill="none" xmlns="http://www.w3.org/2000/svg">
<path d="M16.264 19.6035L9.34747 12.576C9.19578 12.4227 9.11069 12.2157 9.11069 12C9.11069 11.7843 9.19578 11.5773 9.34747 11.424L16.2625 4.39651C16.4141 4.24223 16.499 4.03457 16.499 3.81826C16.499 3.60195 16.4141 3.39429 16.2625 3.24001C16.1884 3.16404 16.0999 3.10366 16.0021 3.06243C15.9043 3.02121 15.7993 2.99997 15.6932 2.99997C15.5871 2.99997 15.4821 3.02121 15.3843 3.06243C15.2866 3.10366 15.198 3.16404 15.124 3.24001L8.20897 10.266C7.75458 10.7288 7.5 11.3514 7.5 12C7.5 12.6486 7.75458 13.2712 8.20897 13.734L15.124 20.76C15.1981 20.8362 15.2867 20.8968 15.3846 20.9381C15.4825 20.9795 15.5877 21.0008 15.694 21.0008C15.8003 21.0008 15.9055 20.9795 16.0034 20.9381C16.1013 20.8968 16.1899 20.8362 16.264 20.76C16.4156 20.6057 16.5005 20.3981 16.5005 20.1818C16.5005 19.9655 16.4156 19.7578 16.264 19.6035Z" fill="#9A9A9A"/>
</svg>
