<svg width="28" height="28" viewBox="0 0 24 24" fill="none" xmlns="http://www.w3.org/2000/svg">
<path d="M12 9.78V14.22C12 15.43 13.06 16.36 14.26 16.2L16.71 15.88C18.61 15.57 20 13.92 20 12C20 10.08 18.61 8.43 16.71 8.12L14.26 7.8C13.06 7.64 12 8.57 12 9.78Z" fill="#FA9D17"/>
<path d="M9.43997 18.39C10.3 16.71 11 14.53 11 12C11 9.47 10.3 7.29 9.43997 5.61C9.18865 5.12206 8.80704 4.7133 8.33749 4.4291C7.86794 4.1449 7.32882 3.99637 6.77997 4H3.99997V20H6.77997C7.89997 20 8.92997 19.39 9.43997 18.39Z" fill="#4A4ED4"/>
</svg>
