<svg width="24" height="24" viewBox="0 0 16 16" fill="none" xmlns="http://www.w3.org/2000/svg">
<path fill-rule="evenodd" clip-rule="evenodd" d="M2 13C2 14 3 14 3 14H13C13 14 14 14 14 13C14 12 13 9 8 9C3 9 2 12 2 13Z" fill="#FA9D17"/>
<path d="M8 8C8.79565 8 9.55871 7.68393 10.1213 7.12132C10.6839 6.55871 11 5.79565 11 5C11 4.20435 10.6839 3.44129 10.1213 2.87868C9.55871 2.31607 8.79565 2 8 2C7.20435 2 6.44129 2.31607 5.87868 2.87868C5.31607 3.44129 5 4.20435 5 5C5 5.79565 5.31607 6.55871 5.87868 7.12132C6.44129 7.68393 7.20435 8 8 8Z" fill="#4A4ED4"/>
</svg>
