<svg width="24" height="24" viewBox="0 0 20 20" fill="none" xmlns="http://www.w3.org/2000/svg">
<path d="M8.75 7.00267H11.25C11.5815 7.00267 11.8995 7.10807 12.1339 7.29569C12.3683 7.48331 12.5 7.73778 12.5 8.00311V19H7.5V8.00311C7.5 7.73778 7.6317 7.48331 7.86612 7.29569C8.10054 7.10807 8.41848 7.00267 8.75 7.00267Z" fill="#4A4ED4"/>
<path fill-rule="evenodd" clip-rule="evenodd" d="M16.25 13.0053H18.75C19.0815 13.0053 19.3995 13.1107 19.6339 13.2984C19.8683 13.486 20 13.7404 20 14.0058V19H15V14.0058C15 13.7404 15.1317 13.486 15.3661 13.2984C15.6005 13.1107 15.9185 13.0053 16.25 13.0053Z" fill="#4A4ED4"/>
<path d="M1.25 1H3.75C4.08152 1 4.39946 1.1054 4.63388 1.29302C4.8683 1.48064 5 1.73511 5 2.00044V19H0V2.00044C0 1.73511 0.131695 1.48064 0.366116 1.29302C0.600536 1.1054 0.918479 1 1.25 1Z" fill="#FA9D17"/>
</svg>
