<svg width="18" height="18" viewBox="0 0 24 24" fill="none" xmlns="http://www.w3.org/2000/svg">
<path d="M19.6035 7.73551L12.576 14.652C12.4227 14.8037 12.2157 14.8888 12 14.8888C11.7844 14.8888 11.5774 14.8037 11.424 14.652L4.39654 7.73701C4.24226 7.5854 4.0346 7.50045 3.81829 7.50045C3.60198 7.50045 3.39432 7.5854 3.24004 7.73701C3.16407 7.81108 3.10369 7.8996 3.06246 7.99737C3.02124 8.09513 3 8.20016 3 8.30626C3 8.41237 3.02124 8.51739 3.06246 8.61516C3.10369 8.71292 3.16407 8.80145 3.24004 8.87551L10.266 15.7905C10.7288 16.2449 11.3515 16.4995 12 16.4995C12.6486 16.4995 13.2713 16.2449 13.734 15.7905L20.76 8.87551C20.8362 8.80142 20.8968 8.71281 20.9382 8.6149C20.9795 8.517 21.0009 8.4118 21.0009 8.30551C21.0009 8.19923 20.9795 8.09403 20.9382 7.99612C20.8968 7.89822 20.8362 7.8096 20.76 7.73551C20.6058 7.5839 20.3981 7.49895 20.1818 7.49895C19.9655 7.49895 19.7578 7.5839 19.6035 7.73551Z" fill="#4A4ED4"/>
</svg>
