<svg width="36" height="36" viewBox="0 0 24 24" fill="none" xmlns="http://www.w3.org/2000/svg">
<path d="M7.73603 4.39649L14.6525 11.424C14.8042 11.5773 14.8893 11.7843 14.8893 12C14.8893 12.2157 14.8042 12.4227 14.6525 12.576L7.73753 19.6035C7.58592 19.7578 7.50096 19.9654 7.50096 20.1817C7.50096 20.398 7.58592 20.6057 7.73753 20.76C7.8116 20.836 7.90012 20.8963 7.99789 20.9376C8.09565 20.9788 8.20068 21 8.30678 21C8.41289 21 8.51791 20.9788 8.61568 20.9376C8.71344 20.8963 8.80197 20.836 8.87603 20.76L15.791 13.734C16.2454 13.2712 16.5 12.6486 16.5 12C16.5 11.3514 16.2454 10.7288 15.791 10.266L8.87603 3.23999C8.80194 3.16379 8.71333 3.10321 8.61542 3.06185C8.51752 3.02049 8.41232 2.99918 8.30603 2.99918C8.19975 2.99918 8.09455 3.02049 7.99664 3.06185C7.89874 3.10321 7.81012 3.16379 7.73603 3.23999C7.58442 3.39427 7.49946 3.60193 7.49946 3.81824C7.49946 4.03455 7.58442 4.24221 7.73603 4.39649Z" fill="black"/>
</svg>
